<?xml version="1.0" encoding="UTF-8"?>
<svg data-name="Layer 13" version="1.1" viewBox="0 0 150 50" xmlns="http://www.w3.org/2000/svg" xmlns:xlink="http://www.w3.org/1999/xlink">
 <defs>
  <style>.cls-1{fill:url(#未命名的渐变_53);}.cls-2{fill:url(#linear-gradient);}.cls-3{fill:url(#未命名的渐变_68);}.cls-4{fill:url(#linear-gradient-2);}.cls-5{fill:url(#linear-gradient-3);}.cls-6{fill:url(#linear-gradient-4);}.cls-7{fill:url(#linear-gradient-5);}.cls-8{fill:url(#linear-gradient-6);}.cls-9{fill:url(#未命名的渐变_27);}.cls-10{fill:url(#未命名的渐变_12);}.cls-11{fill:#fff;}.cls-12{fill:#0f9a3b;}.cls-13{fill:#e4ea6c;}.cls-14{fill:#d0e505;}</style>
  <linearGradient id="未命名的渐变_53" x1="226.44" x2="88.62" y1="712.81" y2="-182.97" gradientTransform="matrix(.071269 0 0 .071269 11.629 -.53666)" gradientUnits="userSpaceOnUse">
   <stop stop-color="#00904c" offset="0"/>
   <stop stop-color="#38bf00" offset="1"/>
  </linearGradient>
  <linearGradient id="linear-gradient" x1="178.41" x2="397.4" y1="725.96" y2="1155.6" gradientTransform="matrix(.070963 .0065955 -.0065955 .070963 14.372 -27.735)" gradientUnits="userSpaceOnUse">
   <stop stop-color="#00ac4e" offset="0"/>
   <stop stop-color="#039048" offset=".34"/>
   <stop stop-color="#095e3c" offset="1"/>
  </linearGradient>
  <linearGradient id="未命名的渐变_68" x1="163.81" x2="682.27" y1="865.93" y2="476.58" gradientTransform="matrix(.071049 .0055917 -.0055917 .071049 13.613 -23.893)" gradientUnits="userSpaceOnUse">
   <stop stop-color="#00904c" offset="0"/>
   <stop stop-color="#43bf00" offset="1"/>
  </linearGradient>
  <linearGradient id="linear-gradient-2" x1="420.84" x2="418" y1="630.79" y2="634.88" gradientUnits="userSpaceOnUse">
   <stop stop-color="#095e3c" offset="0"/>
   <stop stop-color="#00904c" offset=".6"/>
   <stop stop-color="#f6e906" offset="1"/>
  </linearGradient>
  <linearGradient id="linear-gradient-3" x1="413.8" x2="410.81" y1="623.61" y2="627.93" gradientTransform="matrix(.071269 0 0 .071269 11.629 -.53666)" xlink:href="#linear-gradient-2"/>
  <linearGradient id="linear-gradient-4" x1="407.69" x2="404.18" y1="617.04" y2="622.11" gradientTransform="matrix(.071269 0 0 .071269 11.629 -.53666)" xlink:href="#linear-gradient-2"/>
  <linearGradient id="linear-gradient-5" x1="401.25" x2="398.23" y1="612.08" y2="616.44" gradientTransform="matrix(.071269 0 0 .071269 11.629 -.53666)" xlink:href="#linear-gradient-2"/>
  <linearGradient id="linear-gradient-6" x1="641.65" x2="290.44" y1="612.39" y2="201.79" gradientTransform="matrix(.071269 0 0 .071269 11.629 -.53666)" gradientUnits="userSpaceOnUse">
   <stop stop-color="#095e3c" offset="0"/>
   <stop stop-color="#00904c" offset=".44"/>
   <stop stop-color="#f6e906" offset="1"/>
  </linearGradient>
  <linearGradient id="未命名的渐变_27" x1="151.86" x2="407.66" y1="350.02" y2="654.83" gradientTransform="matrix(.071269 0 0 .071269 11.629 -.53666)" gradientUnits="userSpaceOnUse">
   <stop stop-color="#095e3c" offset="0"/>
   <stop stop-color="#00904c" offset=".6"/>
   <stop stop-color="#00aa3f" offset="1"/>
  </linearGradient>
  <linearGradient id="未命名的渐变_12" x1="119.82" x2="456.14" y1="487.12" y2="573.19" gradientTransform="matrix(.071269 0 0 .071269 11.629 -.53666)" gradientUnits="userSpaceOnUse">
   <stop stop-color="#095e3c" offset="0"/>
   <stop stop-color="#00904c" offset=".6"/>
   <stop stop-color="#bedd06" offset="1"/>
  </linearGradient>
  <linearGradient id="linearGradient311" x1="420.84" x2="418" y1="630.79" y2="634.88" gradientTransform="matrix(.071269 0 0 .071269 11.629 -.53666)" gradientUnits="userSpaceOnUse" xlink:href="#linear-gradient-2"/>
 </defs>
 <title>Chives</title>
 <g stroke-width=".071269">
  <path class="cls-1" d="m35.945 48.974a17.093 17.093 0 0 1-5.844 1.0256c-9.4844 0-18.161-8.5323-17.573-18.136 0.32213-5.2554 2.2806-9.8308 6.0072-13.554 3.3232-3.3197 9.4039-6.0728 11.942-10.105 1.6342-2.5963 2.138-5.2112 1.4375-8.2044 2.1537 3.0275 1.9057 6.933-0.0898 10.062-2.1544 3.3781-7.8823 5.2924-10.821 7.8823-2.7203 2.3946-4.9446 5.4278-6.169 8.8537 0 0-1.9791 7.3628 1.4724 13.944 0 0 4.1878 8.1916 13.53 8.2372 0 0 4.326-0.2302 5.2924-1.0127z" fill="url(#%E6%9C%AA%E5%91%BD%E5%90%8D%E7%9A%84%E6%B8%90%E5%8F%98_53)"/>
  <path class="cls-2" d="m35.148 49.201a17.817 17.817 0 0 1-3.7509 0.0478c-9.7702-0.90867-16.953-9.5635-16.045-19.332 0.71269-7.6799 8.4389-13.555 15.507-15.362-7.8531 1.2187-16.402 7.429-17.171 15.703-0.90796 9.7681 6.2745 18.423 16.043 19.332a17.746 17.746 0 0 0 5.4164-0.32641v-0.0627z" fill="url(#linear-gradient)"/>
  <path class="cls-3" d="m29.317 49.565c-8.4681-0.90368-14.728-8.3926-14.053-16.936a16.989 16.989 0 0 1 1.1218-4.8463c0.61291-1.5337 1.5415-2.912 2.6369-4.1407a19.107 19.107 0 0 1 3.5634-3.143 13.35 13.35 0 0 1 4.3916-1.9029c3.1458-0.74618 6.3885-0.74618 9.6056-0.88302 1.8651-0.0784 3.7388-0.28935 5.497-0.94858a6.7249 6.7249 0 0 0 1.7147-0.9101s2.2863-1.4817 2.974-4.0623c0 0 0.70128 5.4563-4.9004 6.5382-2.0668 0.39839-4.1535 0.50886-6.2481 0.61434-0.82172 0.0413-1.6456 0.0862-2.4659 0.15465-1.9898 0.16677-3.9953 0.33781-5.9296 0.86092a14.182 14.182 0 0 0-4.3787 2.0119 16.556 16.556 0 0 0-3.2705 3.0047 14.139 14.139 0 0 0-2.2884 3.8036c-1.2458 3.1187-1.8808 6.7491-0.68061 9.9776a17.377 17.377 0 0 0 1.2116 2.56c0.79251 1.3833 1.6549 2.7495 2.87 3.8072 0.93576 0.81389 2.0789 1.4795 3.2071 1.9905a19.352 19.352 0 0 0 2.7082 0.97495l2.5756 0.511z" fill="url(#%E6%9C%AA%E5%91%BD%E5%90%8D%E7%9A%84%E6%B8%90%E5%8F%98_68)"/>
  <path class="cls-4" d="m41.348 44.277c-0.0242 0.0278-0.0492 0.0556-0.0713 0.0834q0.22022 0.2138 0.43474 0.42761c0.0442-0.0463 0.0891-0.0919 0.13256-0.13826" fill="url(#linearGradient311)"/>
  <path class="cls-5" d="m40.838 43.761c-0.0314 0.0342-0.0634 0.0713-0.0955 0.10191q0.23519 0.21381 0.4661 0.43189c0.052-0.0513 0.10476-0.10191 0.15608-0.15394" fill="url(#linear-gradient-3)"/>
  <path class="cls-6" d="m40.411 43.306c-0.042 0.0513-0.0862 0.1012-0.12899 0.1518q0.22948 0.1967 0.45683 0.40124c0.0577-0.062 0.11617-0.12401 0.17318-0.18672" fill="url(#linear-gradient-4)"/>
  <path class="cls-7" d="m39.972 43.008c-0.0307 0.0378-0.062 0.0748-0.0927 0.11261q0.19171 0.1575 0.38271 0.31999c0.052-0.0577 0.10548-0.11403 0.15679-0.17175" fill="url(#linear-gradient-5)"/>
  <path class="cls-8" d="m36.991 19.553q0.19599-0.0264 0.39127-0.0563c-0.13114 0.0171-0.26156 0.0364-0.39127 0.0563z" fill="url(#linear-gradient-6)"/>
  <path class="cls-9" d="m35.252 49.314m-0.66922-1.0776-0.0713 0.01 7.878-3.2192s-2.2913 2.7795-7.1383 4.2868m-0.66921-1.0776c-2.5486 0.25514-5.0601 0.0934-7.4832-0.80177a15.289 15.289 0 0 1-3.7651-1.9898 14.361 14.361 0 0 1-1.7532-1.4838q-0.35135-0.3485-0.68489-0.72337a13.905 13.905 0 0 1-2.121-3.1422l-0.13328-0.27581c-0.0449-0.0919-0.0905-0.18388-0.12828-0.27866l-0.23804-0.57015-0.2138-0.57942c-0.0677-0.19456-0.12258-0.3934-0.18459-0.5901a13.814 13.814 0 0 1-0.50814-4.9375 14.182 14.182 0 0 1 0.2473-1.7268c0.0142-0.0627 0.0285-0.12543 0.0442-0.18815a14.632 14.632 0 0 1 3.5192-6.4783l0.20525-0.21951c0.067-0.0713 0.14254-0.14253 0.21381-0.2138l0.2138-0.20811c0.0713-0.0713 0.14254-0.13826 0.21381-0.20311 1.2878-1.1403 2.7182-2.0775 4.3139-2.7253a13.851 13.851 0 0 1 1.3726-0.47537 12.768 12.768 0 0 1 1.4831-0.33353c1.8038-0.29434 3.6554-0.18601 5.4741-0.33496l0.21381-0.0185a15.394 15.394 0 0 0 1.9827-0.22379c0.0884-0.0135 0.17675-0.0278 0.26441-0.0428l-0.1119 0.0128c0.25586-0.0527 0.38129-0.0919 0.38129-0.0919a6.045 6.045 0 0 1-0.68418 0.10405l0.29791-0.0442q-0.41194 0.0549-0.82387 0.0955c-0.40694 0.0356-0.85522 0.0713-1.2657 0.0976-1.2358 0.0713-2.4752 0.0869-3.7159 0.12899a15.433 15.433 0 0 0-6.9209 1.9107 17.199 17.199 0 0 0-3.1223 2.1694 9.4958 9.4958 0 0 0-0.74262 0.73478 15.042 15.042 0 0 0-1.0127 1.2493 14.851 14.851 0 0 0-1.2971 2.1808 13.745 13.745 0 0 0-1.3006 4.3787q-0.0862 0.55019-0.13398 1.1082a15.159 15.159 0 0 0 0.43545 5.1121c0.0584 0.20525 0.10904 0.41122 0.17318 0.61434l0.19884 0.60364 0.22592 0.59153c0.0356 0.0991 0.0791 0.19456 0.12187 0.29078l0.12686 0.28507a15.469 15.469 0 0 0 1.2044 2.1701 14.824 14.824 0 0 0 1.4966 1.8879 14.384 14.384 0 0 0 1.7054 1.5679 14.793 14.793 0 0 0 3.6903 2.1288c2.2093 0.89584 4.6496 1.2116 7.0157 0.97424 0.37416-0.0378 0.7469-0.0877 1.1175-0.15252a5.9866 5.9866 0 0 0 1.064-0.27153" fill="url(#%E6%9C%AA%E5%91%BD%E5%90%8D%E7%9A%84%E6%B8%90%E5%8F%98_27)"/>
  <path class="cls-10" d="m39.216 42.6c0.0599-0.0748 0.12044-0.14966 0.17888-0.22592a13.188 13.188 0 0 0 0.81246-1.1923 13.48 13.48 0 0 0 0.65567-1.2287c0.0926-0.20597 0.18673-0.40694 0.26512-0.60935 0.0784-0.2024 0.15608-0.39981 0.22664-0.59366 0.0706-0.19386 0.12828-0.38628 0.18886-0.57015 0.0606-0.18388 0.10762-0.36561 0.15038-0.54022 0.0898-0.3485 0.1575-0.67064 0.2138-0.95714l0.0713-0.40266 0.0442-0.33924 0.0192-0.14254q6e-3 -0.0713 0.0128-0.13327l0.0199-0.20953a3.4152 3.4152 0 0 1 1.0897 0.18886l-0.0178 0.12472-0.02 0.14254a5.013 5.013 0 0 1 0.5281 0.0713l-0.0171 0.13612-0.0264 0.2138c-6e-3 0.0413-0.0114 0.0862-0.0171 0.13328l-0.0257 0.15607-0.0613 0.36419-0.0884 0.42119c-0.0713 0.30005-0.15394 0.63643-0.26512 0.99777-0.0534 0.18173-0.12258 0.36774-0.18601 0.56159-0.0634 0.19385-0.14254 0.39055-0.22949 0.59153-0.0342 0.0798-0.0713 0.16036-0.10334 0.24089 0.0456-0.0955 0.0898-0.19171 0.13114-0.28508 0.11759-0.25157 0.2138-0.50458 0.31572-0.74903 0.10191-0.24445 0.18102-0.48819 0.26583-0.72124 0.0848-0.23305 0.15394-0.46324 0.21381-0.68418 0.12971-0.44115 0.23019-0.85023 0.31073-1.2116l0.10476-0.51171 0.0713-0.43189 0.0307-0.18458 0.0221-0.16962 0.0349-0.26868 0.0221-0.17319c0.5502 0.0713 0.89371 0.14254 1.0626 0.18174l-0.0342 0.19456-0.0228 0.13042a9.0725 9.0725 0 0 1 0.95001 0.16463l-0.0406 0.19813-0.0542 0.26797-5e-3 0.0257c0.12543 0.0256 0.23091 0.0513 0.30717 0.0713l-0.0392 0.20312-0.0342 0.17532s0.74119 0.13399 0.97923 0.18815l-0.0456 0.20312-0.0591 0.26511-0.0378 0.1682-0.0513 0.19599-0.12686 0.44614-0.16035 0.52596c-0.12045 0.37416-0.26726 0.79179-0.44828 1.2401-0.0877 0.22521-0.19457 0.45398-0.29648 0.69273-0.1126 0.23519-0.22521 0.47964-0.35634 0.72552-0.13114 0.24588-0.25942 0.49888-0.40837 0.74761-0.14895 0.24872-0.30218 0.50458-0.46253 0.76043a17.746 17.746 0 0 1-1.094 1.5088 17.488 17.488 0 0 1-1.2921 1.4296c-0.0634 0.062-0.12686 0.12258-0.191 0.18316m-8.8993 1.4966-0.0955-0.10477c-0.19242-0.22307-0.38698-0.444-0.58582-0.65923-1.0619 0.20596-7.6564 1.2614-11.004-3.5207a9.85 9.85 0 0 1-1.2208-2.4524c-0.71268-2.3376-6e-3 -5.5397 1.4375-7.3799a6.3279 6.3279 0 0 1 1.3185-1.2401c0.65425-0.4661 2.5407-1.8309 3.267-0.66565 0 0-1.3805-2.2143-3.5435-1.1531 0 0-2.8508 1.2921-3.5435 7.5203a7.3407 7.3407 0 0 0-0.0499 1.3541 13.207 13.207 0 0 1 0.34137-5.2268c1.9121-5.1313 5.7015-7.0556 7.7505-7.7426 0.66209-0.22235 1.8444 0.0221 1.8459 0.90298 0 0.78751-0.89442 1.6078-1.4047 2.0839 0.062-0.0577 0.24018-0.0755 0.31929-0.11047a3.4166 3.4166 0 0 0 0.75901-0.47179c0.77255-0.63358 1.3862-1.7753 0.90725-2.7474-0.98992-2.0076-3.9647-0.93718-5.3929-0.20882-0.23019 0.1176-0.45326 0.24303-0.67277 0.37773-8.9585 5.5226-4.909 15.033-4.909 15.033 0.0171 0.0449 0.0349 0.0891 0.0527 0.13399l-6e-3 4e-3s0.0264 0.0606 0.0713 0.16392c0.0278 0.0713 0.0556 0.13612 0.0841 0.20312q0.15893 0.37487 0.33068 0.72622h5e-3c0.32285 0.67777 0.91794 1.8181 1.4432 2.3333 4.8662 6.2987 13.347 4.5099 13.347 4.5099l0.47893-0.067c-0.44757-0.53451-0.88373-1.0712-1.3292-1.5914zm5.9153-4.2048c-1.4076 1.4874-3.7274 2.5814-6.5973 3.4387l2.0133 2.3561s3.4551-0.39198 7.5666-3.0916" fill="url(#%E6%9C%AA%E5%91%BD%E5%90%8D%E7%9A%84%E6%B8%90%E5%8F%98_12)"/>
 </g>
 <polyline class="cls-11" transform="matrix(.071269 0 0 .071269 11.629 -.53666)" points="488.78 513.38 477.38 546.55 485.64 512.81"/>
 <g stroke-width=".071269">
  <path class="cls-12" d="m62.158 26.624c2.215 0 3.9376 0.69701 5.1684 2.1331 1.1895 1.3947 1.8045 3.3639 1.8045 5.7428v10.214q1.9692 0.36917 2.3383 0.49246c0.41051 0.082 0.61505 0.36918 0.61505 0.77897v1.7226h-6.6059v-13.207c0-3.2784-1.4767-4.9632-4.3887-4.9632-2.0511 0-3.8556 0.98422-5.5789 2.912v12.306l0.49246 0.082c1.069 0.20526 1.6392 0.32784 1.8045 0.36917 0.4105 0.082 0.65638 0.36918 0.65638 0.77897v1.7226h-9.5985v-1.7226c0-0.41051 0.24588-0.69701 0.65639-0.77897l2.297-0.45113v-24.242q-2.3383-0.36917-2.7082-0.49246c-0.41051-0.082-0.65638-0.36918-0.65638-0.77897v-1.7233h7.0556v12.224c1.9699-2.0511 4.1436-3.118 6.6479-3.118z"/>
  <path class="cls-12" d="m103.16 26.952v1.8024q0 0.61505-0.61505 0.73835c-0.16392 0-0.8203 0.16392-2.0098 0.4105l-7.2608 17.845h-3.3197l-7.263-17.843a6.6672 6.6672 0 0 0-1.1075-0.24587c-0.53308-0.082-0.8203-0.16392-0.90226-0.16392-0.4105-0.082-0.61504-0.36917-0.61504-0.77897v-1.7646h9.3105v1.7639c0 0.41051-0.20526 0.69701-0.61505 0.77897-0.24588 0.082-0.98422 0.16391-2.2564 0.4105l4.3894 11.157c0.24587 0.61505 0.49246 1.6392 0.73834 2.9534 0.32783-1.3128 0.57442-2.297 0.8203-2.9534l4.4301-11.157c-0.32784-0.082-1.1075-0.20525-2.3383-0.45113-0.4105-0.082-0.61504-0.36917-0.61504-0.77968v-1.7226z"/>
  <path class="cls-12" d="m111.42 26.624a9.5179 9.5179 0 0 1 3.4458 0.61505c1.069 0.41051 1.9692 0.98422 2.7082 1.7639a8.347 8.347 0 0 1 1.8052 2.912 11.647 11.647 0 0 1 0.65211 3.9383c0 0.57442-0.0413 0.98422-0.16392 1.1488-0.12258 0.16463-0.41051 0.28507-0.73834 0.28507h-13.779q0 1.9692 0.49246 3.4458c0.32784 0.98422 0.8203 1.7226 1.3947 2.3789a5.2682 5.2682 0 0 0 2.0511 1.4767 6.8019 6.8019 0 0 0 2.6255 0.49246c0.90226 0 1.7226-0.082 2.379-0.28507a11.546 11.546 0 0 0 1.7226-0.69701c0.49247-0.24587 0.90226-0.45113 1.2308-0.65638s0.57443-0.32784 0.8203-0.32784a0.75972 0.75972 0 0 1 0.69701 0.36917l1.0256 1.3541c-0.45113 0.57442-0.98422 0.98422-1.6392 1.3947-0.65496 0.41051-1.2714 0.77897-2.0098 1.0256a14.677 14.677 0 0 1-2.215 0.57442 13.984 13.984 0 0 1-2.2556 0.20526 10.563 10.563 0 0 1-3.9789-0.73834c-1.2308-0.49247-2.2556-1.2308-3.1586-2.1737-0.90297-0.94288-1.5586-2.0917-2.0511-3.4865-0.49246-1.3947-0.73834-2.9534-0.73834-4.7579a11.483 11.483 0 0 1 0.69701-4.0196c0.45113-1.2308 1.1075-2.3789 1.9278-3.2784a8.8843 8.8843 0 0 1 3.0767-2.1737c1.2308-0.53309 2.5842-0.77968 4.0623-0.77968zm0.1233 2.6662c-1.7639 0-3.1586 0.49247-4.1428 1.518-0.98421 1.0256-1.6392 2.4609-1.8865 4.2661h11.28a6.9166 6.9166 0 0 0-0.36917-2.297c-0.24588-0.697-0.53309-1.3541-0.98422-1.8458a5.0002 5.0002 0 0 0-1.6819-1.1895c-0.65639-0.28507-1.4354-0.4105-2.2556-0.4105z"/>
  <path class="cls-12" d="m129.27 26.624q2.1537 0 5.4164 1.1075v5.3323h-1.6c-0.41051 0-0.61505-0.16391-0.69701-0.57442q0-0.1233-0.24587-2.7082c-1.2308-0.28507-2.297-0.45113-3.1992-0.45113h-0.0413c-1.1481 0-2.0917 0.32784-2.8301 0.90226-0.73835 0.57443-1.1075 1.1895-1.1075 1.8872 0 0.69771 0.16392 1.2308 0.49247 1.5586 0.57442 0.65638 1.3541 1.1075 2.3789 1.4354 1.0248 0.32783 1.8872 0.53309 2.5429 0.77968l1.9692 0.73834c0.65638 0.24588 1.2308 0.65638 1.7226 1.069 1.1488 0.90226 1.6819 2.0917 1.6819 3.6098 0 1.9692-0.65638 3.5684-2.0098 4.7579-1.3947 1.2308-3.2784 1.9278-5.4962 1.9278a21.4 21.4 0 0 1-6.727-1.1075v-5.4164h1.4767q0.49247 0 0.61505 0.49247c0 0.12329 0.082 0.98422 0.24588 2.6255 1.1488 0.57443 2.5842 0.8203 4.2248 0.8203 1.3541 0 2.4231-0.36917 3.1992-1.0256 0.69701-0.61505 1.069-1.3128 1.069-2.0917 0-0.77897-0.16392-1.3541-0.49247-1.7226a4.2048 4.2048 0 0 0-1.2351-0.98279 8.3869 8.3869 0 0 0-1.7226-0.65638c-1.8045-0.57443-3.0767-0.98422-3.815-1.3128a7.9008 7.9008 0 0 1-1.8459-1.1488c-1.1488-0.9436-1.7226-2.215-1.7226-3.8556 0-1.6819 0.65638-3.0353 1.9692-4.1842 1.3947-1.2308 3.2784-1.8045 5.8248-1.8045z"/>
  <path class="cls-13" d="m77.18 22.809h0.0321c-0.17745 4e-3 -0.23803 7e-3 -0.0321 0z"/>
  <path class="cls-13" d="m77.212 22.809h0.0214c0.0741-4e-3 0.0812-7e-3 -0.0214 0z"/>
  <path class="cls-12" d="m74.148 27.169c-0.20882 0.41621 0.53807 1.2942 0.32427 1.2358 2.8172 5.9395 1.5337 17.164 1.1731 19.236h3.6105c1.2201-8.766-1.4432-16.808-2.999-20.525 7.2e-4 -4e-3 0.0549-1.1624-2.1088 0.0534z"/>
  <path class="cls-14" d="m72.769 34.344c0.2922-2.5486 2.9028-4.4415 2.1017-7.0157-0.64498-1.4646-2.6184-1.5829-3.3396-0.35207-1.332 2.8636 1.6527 5.353 1.2379 7.3678z"/>
  <path class="cls-14" d="m82.15 30.24c-1.8302-1.7974-1.7176-5.0209-4.2398-5.9723-1.5515-0.39197-2.8579 1.0911-2.3319 2.4174 1.4389 2.8108 5.2382 1.9884 6.5717 3.5549z"/>
  <path class="cls-14" d="m83.738 19.237c-2.4281 0.82815-5.2596-0.71981-7.2402 1.1082-1.0469 1.2116-0.30859 3.0439 1.1125 3.1686 3.1579-0.0249 4.1286-3.7886 6.1277-4.2768z"/>
  <path class="cls-14" d="m75.471 12.696c-0.61505 2.4901-3.4466 4.0345-2.9812 6.69 0.45255 1.5351 2.3946 1.9043 3.2677 0.77611 1.6869-2.6683-0.955-5.519-0.2865-7.4661z"/>
  <path class="cls-14" d="m65.233 16.63c1.8936 1.7311 1.8964 4.956 4.4507 5.8162 1.5679 0.33567 2.8172-1.193 2.2435-2.4994-1.538-2.7574-5.3052-1.7988-6.6943-3.3168z"/>
  <path class="cls-14" d="m63.527 27.321c2.4801-0.65638 5.194 1.0854 7.2993-0.59794 1.1289-1.1346 0.52026-3.0147-0.88872-3.2384-3.1515-0.19812-4.3823 3.4886-6.4106 3.8364z"/>
  <path class="cls-12" d="m76.064 23.512c0 1.2308-1.1517 2.2899-2.3832 2.2899-1.2315 0-2.1637-1.0491-2.1637-2.2806s1.0028-2.2806 2.2336-2.2806 2.3127 1.0398 2.3127 2.2713z"/>
 </g>
</svg>
